<?xml version="1.0" encoding="UTF-8" standalone="no"?>
<svg
   width="190pt"
   height="517pt"
   viewBox="0 0 190 517"
   version="1.1"
   id="svg102"
   sodipodi:docname="topo23_svg.svg"
   inkscape:version="1.2.2 (b0a84865, 2022-12-01)"
   xmlns:inkscape="http://www.inkscape.org/namespaces/inkscape"
   xmlns:sodipodi="http://sodipodi.sourceforge.net/DTD/sodipodi-0.dtd"
   xmlns="http://www.w3.org/2000/svg"
   xmlns:svg="http://www.w3.org/2000/svg">
  <defs
     id="defs106" />
  <sodipodi:namedview
     id="namedview104"
     pagecolor="#ffffff"
     bordercolor="#000000"
     borderopacity="0.25"
     inkscape:showpageshadow="2"
     inkscape:pageopacity="0.0"
     inkscape:pagecheckerboard="0"
     inkscape:deskcolor="#d1d1d1"
     inkscape:document-units="pt"
     showgrid="false"
     inkscape:zoom="1.0534797"
     inkscape:cx="-145.23299"
     inkscape:cy="248.225"
     inkscape:window-width="3008"
     inkscape:window-height="1639"
     inkscape:window-x="0"
     inkscape:window-y="25"
     inkscape:window-maximized="1"
     inkscape:current-layer="surface21285" />
  <g
     id="surface21285">
    <path
       style="stroke:none;fill-rule:evenodd;fill:#f1383b;fill-opacity:1"
       d="M 145 497 C 145 485.953125 136.046875 477 125 477 C 113.953125 477 105 485.953125 105 497 C 105 508.046875 113.953125 517 125 517 C 136.046875 517 145 508.046875 145 497 Z M 145 497 "
       id="path71" />
    <path
       style="stroke:none;fill-rule:evenodd;fill:#f09e04;fill-opacity:1"
       d="M 37 233 C 37 230.789062 38.789062 229 41 229 L 41 193 L 37 193 C 17.117188 193 1 209.117188 1 229 L 1 373 L 37 373 L 37 333 C 37 330.789062 38.789062 329 41 329 L 41 297 C 38.789062 297 37 295.210938 37 293 Z M 37 233 "
       id="path73" />
    <path
       style="stroke:none;fill-rule:evenodd;fill:#f1383b;fill-opacity:1"
       d="M 141 77 C 141 74.789062 142.789062 73 145 73 L 145 37 L 141 37 C 121.117188 37 105 53.117188 105 73 L 105 137 C 105 156.882812 121.117188 173 141 173 L 145 173 L 145 141 C 142.789062 141 141 139.210938 141 137 Z M 141 77 "
       id="path75" />
    <path
       style="stroke:none;fill-rule:evenodd;fill:#f09e04;fill-opacity:1"
       d="M 149 73 C 151.210938 73 153 74.789062 153 77 L 153 137 C 153 139.210938 151.210938 141 149 141 L 149 173 L 153 173 C 172.882812 173 189 156.882812 189 137 L 189 73 C 189 53.117188 172.882812 37 153 37 L 149 37 Z M 149 73 "
       id="path77" />
    <path
       style="stroke:none;fill-rule:evenodd;fill:#294f73;fill-opacity:1"
       d="M 149 229 C 151.210938 229 153 230.789062 153 233 L 153 293 C 153 295.210938 151.210938 297 149 297 L 149 329 L 153 329 C 172.882812 329 189 312.882812 189 293 L 189 229 C 189 209.117188 172.882812 193 153 193 L 149 193 Z M 149 229 "
       id="path79" />
    <path
       style="stroke:none;fill-rule:evenodd;fill:#f1383b;fill-opacity:1"
       d="M 141 233 C 141 230.789062 142.789062 229 145 229 L 145 193 L 141 193 C 121.117188 193 105 209.117188 105 229 L 105 293 C 105 312.882812 121.117188 329 141 329 L 145 329 L 145 297 C 142.789062 297 141 295.210938 141 293 Z M 141 233 "
       id="path81" />
    <path
       style="stroke:none;fill-rule:evenodd;fill:#294f73;fill-opacity:1"
       d="M 45 229 C 47.210938 229 49 230.789062 49 233 L 49 293 C 49 295.210938 47.210938 297 45 297 L 45 329 L 49 329 C 68.882812 329 85 312.882812 85 293 L 85 229 C 85 209.117188 68.882812 193 49 193 L 45 193 Z M 45 229 "
       id="path83" />
    <path
       style="stroke:none;fill-rule:evenodd;fill:#294f73;fill-opacity:1"
       d="M 37 393 L 1 393 C 1 412.882812 17.117188 429 37 429 C 37 426.789062 38.789062 425 41 425 L 41 393 Z M 37 393 "
       id="path85" />
    <path
       style="stroke:none;fill-rule:evenodd;fill:#f09e04;fill-opacity:1"
       d="M 145 381 C 142.789062 381 141 382.789062 141 385 C 121.117188 385 105 368.882812 105 349 L 145 349 Z M 145 381 "
       id="path87" />
    <path
       style="stroke:none;fill-rule:evenodd;fill:#294f73;fill-opacity:1"
       d="M 149 429 L 153 429 C 172.882812 429 189 412.882812 189 393 L 189 349 L 149 349 L 149 381 C 151.210938 381 153 382.789062 153 385 L 153 393 C 153 395.210938 151.210938 397 149 397 Z M 149 429 "
       id="path89" />
    <path
       style="stroke:none;fill-rule:evenodd;fill:#f1383b;fill-opacity:1"
       d="M 149 433 L 149 517 L 153 517 C 172.882812 517 189 500.882812 189 481 L 189 469 C 189 449.117188 172.882812 433 153 433 Z M 149 433 "
       id="path91" />
    <path
       style="stroke:none;fill-rule:evenodd;fill:#294f73;fill-opacity:1"
       d="M 45 477 C 45 479.210938 43.210938 481 41 481 L 37 481 C 17.117188 481 1 497.117188 1 517 L 85 517 L 85 477 Z M 45 477 "
       id="path93" />
    <path
       style="stroke:none;fill-rule:evenodd;fill:#f09e04;fill-opacity:1"
       d="M 45 393 L 49 393 C 68.882812 393 85 409.117188 85 429 L 85 437 C 85 456.882812 68.882812 473 49 473 L 45 473 L 45 441 C 47.210938 441 49 439.210938 49 437 L 49 429 C 49 426.789062 47.210938 425 45 425 Z M 45 393 "
       id="path95" />
    <path
       style="stroke:none;fill-rule:evenodd;fill:#f09e04;fill-opacity:1"
       d="M 45 69 C 47.210938 69 49 70.789062 49 73 C 68.882812 73 85 56.882812 85 37 L 45 37 Z M 45 69 "
       id="path97" />
    <path
       style="stroke:none;fill-rule:evenodd;fill:#f1383b;fill-opacity:1"
       d="M 41 173 C 20.421875 173 3.160156 157.464844 1 137 L 1 1 L 41 1 L 41 69 C 38.789062 69 37 70.789062 37 73 L 37 133 C 37 135.210938 38.789062 137 41 137 Z M 41 173 "
       id="path99" />
  </g>
</svg>
