<?xml version="1.0" encoding="UTF-8" standalone="no"?>
<svg
   width="190pt"
   height="517pt"
   viewBox="0 0 190 517"
   version="1.1"
   id="svg102"
   sodipodi:docname="Untitled.svg"
   inkscape:version="1.2.2 (b0a84865, 2022-12-01)"
   xmlns:inkscape="http://www.inkscape.org/namespaces/inkscape"
   xmlns:sodipodi="http://sodipodi.sourceforge.net/DTD/sodipodi-0.dtd"
   xmlns="http://www.w3.org/2000/svg"
   xmlns:svg="http://www.w3.org/2000/svg">
  <defs
     id="defs106" />
  <sodipodi:namedview
     id="namedview104"
     pagecolor="#ffffff"
     bordercolor="#000000"
     borderopacity="0.25"
     inkscape:showpageshadow="2"
     inkscape:pageopacity="0.0"
     inkscape:pagecheckerboard="0"
     inkscape:deskcolor="#d1d1d1"
     inkscape:document-units="pt"
     showgrid="false"
     inkscape:zoom="1.4898453"
     inkscape:cx="-34.231743"
     inkscape:cy="353.39241"
     inkscape:window-width="1802"
     inkscape:window-height="1639"
     inkscape:window-x="0"
     inkscape:window-y="25"
     inkscape:window-maximized="0"
     inkscape:current-layer="surface17233" />
  <g
     id="surface17233">
    <path
       style="fill-rule:evenodd;fill:#f1383b;fill-opacity:1;stroke-width:0.4;stroke-linecap:butt;stroke-linejoin:round;stroke:rgb(0%, 0%, 0%);stroke-opacity:1;stroke-miterlimit:10"
       d="M 304 240 C 304 251.046875 295.046875 260 284 260 C 272.953125 260 264 251.046875 264 240 C 264 228.953125 272.953125 220 284 220 C 295.046875 220 304 228.953125 304 240 Z M 304 240 "
       transform="matrix(1,0,0,-1,-159,737)"
       id="path71" />
    <path
       style="fill-rule:evenodd;fill:#f1383b;fill-opacity:1;stroke-width:0.4;stroke-linecap:butt;stroke-linejoin:round;stroke:rgb(0%, 0%, 0%);stroke-opacity:1;stroke-miterlimit:10"
       d="M 308 304 L 308 220 L 312 220 C 331.882812 220 348 236.117188 348 256 L 348 268 C 348 287.882812 331.882812 304 312 304 Z M 308 304 "
       transform="matrix(1,0,0,-1,-159,737)"
       id="path73" />
    <path
       style="fill-rule:evenodd;fill:#294f73;fill-opacity:1;stroke-width:0.4;stroke-linecap:butt;stroke-linejoin:round;stroke:rgb(0%, 0%, 0%);stroke-opacity:1;stroke-miterlimit:10"
       d="M 204 260 C 204 257.789062 202.210938 256 200 256 L 196 256 C 176.117188 256 160 239.882812 160 220 L 244 220 L 244 260 Z M 204 260 "
       transform="matrix(1,0,0,-1,-159,737)"
       id="path75" />
    <path
       style="fill-rule:evenodd;fill:#f09e04;fill-opacity:1;stroke-width:0.4;stroke-linecap:butt;stroke-linejoin:round;stroke:rgb(0%, 0%, 0%);stroke-opacity:1;stroke-miterlimit:10"
       d="M 200 544 L 200 364 L 160 364 L 160 508 C 160 527.882812 176.117188 544 196 544 Z M 200 544 "
       transform="matrix(1,0,0,-1,-159,737)"
       id="path77" />
    <path
       style="fill-rule:evenodd;fill:#294f73;fill-opacity:1;stroke-width:0.4;stroke-linecap:butt;stroke-linejoin:round;stroke:rgb(0%, 0%, 0%);stroke-opacity:1;stroke-miterlimit:10"
       d="M 204 544 L 204 408 L 208 408 C 227.882812 408 244 424.117188 244 444 L 244 508 C 244 527.882812 227.882812 544 208 544 Z M 204 544 "
       transform="matrix(1,0,0,-1,-159,737)"
       id="path79" />
    <path
       style="fill-rule:evenodd;fill:#f1383b;fill-opacity:1;stroke-width:0.4;stroke-linecap:butt;stroke-linejoin:round;stroke:rgb(0%, 0%, 0%);stroke-opacity:1;stroke-miterlimit:10"
       d="M 304 544 L 304 408 L 300 408 C 280.117188 408 264 424.117188 264 444 L 264 508 C 264 527.882812 280.117188 544 300 544 Z M 304 544 "
       transform="matrix(1,0,0,-1,-159,737)"
       id="path81" />
    <path
       style="fill-rule:evenodd;fill:#f1383b;fill-opacity:1;stroke-width:0.4;stroke-linecap:butt;stroke-linejoin:round;stroke:rgb(0%, 0%, 0%);stroke-opacity:1;stroke-miterlimit:10"
       d="M 160 344 L 200 344 L 200 308 L 196 308 C 176.117188 308 160 324.117188 160 344 Z M 160 344 "
       transform="matrix(1,0,0,-1,-159,737)"
       id="path83" />
    <path
       style="fill-rule:evenodd;fill:#f09e04;fill-opacity:1;stroke-width:0.4;stroke-linecap:butt;stroke-linejoin:round;stroke:rgb(0%, 0%, 0%);stroke-opacity:1;stroke-miterlimit:10"
       d="M 204 264 L 208 264 C 227.882812 264 244 280.117188 244 300 L 244 308 C 244 327.882812 227.882812 344 208 344 L 204 344 Z M 204 264 "
       transform="matrix(1,0,0,-1,-159,737)"
       id="path85" />
    <path
       style="fill-rule:evenodd;fill:#f09e04;fill-opacity:1;stroke-width:0.4;stroke-linecap:butt;stroke-linejoin:round;stroke:rgb(0%, 0%, 0%);stroke-opacity:1;stroke-miterlimit:10"
       d="M 264 388 L 304 388 L 304 352 L 300 352 C 280.117188 352 264 368.117188 264 388 Z M 264 388 "
       transform="matrix(1,0,0,-1,-159,737)"
       id="path87" />
    <path
       style="fill-rule:evenodd;fill:#294f73;fill-opacity:1;stroke-width:0.4;stroke-linecap:butt;stroke-linejoin:round;stroke:rgb(0%, 0%, 0%);stroke-opacity:1;stroke-miterlimit:10"
       d="M 308 308 L 312 308 C 331.882812 308 348 324.117188 348 344 L 348 388 L 308 388 Z M 308 308 "
       transform="matrix(1,0,0,-1,-159,737)"
       id="path89" />
    <path
       style="fill-rule:evenodd;fill:#294f73;fill-opacity:1;stroke-width:0.4;stroke-linecap:butt;stroke-linejoin:round;stroke:rgb(0%, 0%, 0%);stroke-opacity:1;stroke-miterlimit:10"
       d="M 308 408 L 308 544 L 312 544 C 331.882812 544 348 527.882812 348 508 L 348 444 C 348 424.117188 331.882812 408 312 408 Z M 308 408 "
       transform="matrix(1,0,0,-1,-159,737)"
       id="path91" />
    <path
       style="fill-rule:evenodd;fill:#f09e04;fill-opacity:1;stroke-width:0.4;stroke-linecap:butt;stroke-linejoin:round;stroke:rgb(0%, 0%, 0%);stroke-opacity:1;stroke-miterlimit:10"
       d="M 160 700 L 200 700 L 200 664 L 196 664 C 176.117188 664 160 680.117188 160 700 Z M 160 700 "
       transform="matrix(1,0,0,-1,-159,737)"
       id="path93" />
    <path
       style="fill-rule:evenodd;fill:#f1383b;fill-opacity:1;stroke-width:0.4;stroke-linecap:butt;stroke-linejoin:round;stroke:rgb(0%, 0%, 0%);stroke-opacity:1;stroke-miterlimit:10"
       d="M 244 736 L 244 600 C 244 580.117188 227.882812 564 208 564 L 204 564 L 204 736 Z M 244 736 "
       transform="matrix(1,0,0,-1,-159,737)"
       id="path95" />
    <path
       style="fill-rule:evenodd;fill:#f09e04;fill-opacity:1;stroke-width:0.4;stroke-linecap:butt;stroke-linejoin:round;stroke:rgb(0%, 0%, 0%);stroke-opacity:1;stroke-miterlimit:10"
       d="M 304 700 L 304 564 L 300 564 C 280.117188 564 264 580.117188 264 600 L 264 664 C 264 683.882812 280.117188 700 300 700 Z M 304 700 "
       transform="matrix(1,0,0,-1,-159,737)"
       id="path97" />
    <path
       style="fill-rule:evenodd;fill:#f1383b;fill-opacity:1;stroke-width:0.4;stroke-linecap:butt;stroke-linejoin:round;stroke:rgb(0%, 0%, 0%);stroke-opacity:1;stroke-miterlimit:10"
       d="M 308 564 L 308 700 L 312 700 C 331.882812 700 348 683.882812 348 664 L 348 600 C 348 580.117188 331.882812 564 312 564 Z M 308 564 "
       transform="matrix(1,0,0,-1,-159,737)"
       id="path99" />
  </g>
</svg>
